<svg width="168" height="50" viewBox="0 0 168 50" fill="none" xmlns="http://www.w3.org/2000/svg"><g clip-path="url(#clip0_27697_33782)"><rect width="168" height="50" rx="6" fill="#A6A6A6"/><rect x="1.044" y="1.011" width="165.901" height="47.978" rx="5" fill="#000"/><path d="M40.294 23.994a6.187 6.187 0 012.945-5.19 6.332 6.332 0 00-4.989-2.697c-2.099-.22-4.134 1.256-5.203 1.256-1.09 0-2.737-1.235-4.51-1.198a6.644 6.644 0 00-5.592 3.41c-2.417 4.185-.614 10.337 1.701 13.72 1.16 1.657 2.513 3.507 4.285 3.441 1.734-.071 2.381-1.105 4.474-1.105 2.074 0 2.681 1.105 4.489 1.064 1.86-.03 3.033-1.664 4.15-3.337a13.705 13.705 0 001.899-3.865 5.977 5.977 0 01-3.65-5.5zM36.88 13.881a6.09 6.09 0 001.392-4.363 6.197 6.197 0 00-4.01 2.075 5.795 5.795 0 00-1.429 4.201 5.123 5.123 0 004.046-1.913zm25.33 18.661h-5.916l-1.421 4.196h-2.506l5.604-15.522h2.604l5.604 15.522H63.63l-1.42-4.196zm-5.304-1.936h4.69l-2.312-6.809h-.064l-2.314 6.81zm21.376.474c0 3.517-1.882 5.776-4.723 5.776a3.837 3.837 0 01-3.56-1.98h-.054v5.606h-2.323V25.42h2.248v1.882h.043a4.015 4.015 0 013.603-2c2.873 0 4.766 2.27 4.766 5.777zm-2.388 0c0-2.291-1.184-3.798-2.99-3.798-1.775 0-2.97 1.538-2.97 3.798 0 2.28 1.195 3.807 2.97 3.807 1.806 0 2.99-1.495 2.99-3.807zm14.844 0c0 3.517-1.882 5.776-4.723 5.776a3.837 3.837 0 01-3.56-1.98H82.4v5.606h-2.323V25.42h2.248v1.882h.043a4.014 4.014 0 013.603-2c2.873 0 4.766 2.27 4.766 5.777zm-2.388 0c0-2.291-1.184-3.798-2.99-3.798-1.775 0-2.97 1.538-2.97 3.798 0 2.28 1.195 3.807 2.97 3.807 1.806 0 2.99-1.495 2.99-3.807zm10.62 1.333c.173 1.54 1.668 2.55 3.711 2.55 1.958 0 3.367-1.01 3.367-2.398 0-1.205-.85-1.927-2.861-2.421l-2.012-.485c-2.85-.688-4.174-2.021-4.174-4.184 0-2.678 2.334-4.518 5.649-4.518 3.28 0 5.528 1.84 5.604 4.518h-2.345c-.141-1.55-1.421-2.484-3.292-2.484-1.872 0-3.152.946-3.152 2.323 0 1.097.818 1.743 2.818 2.237l1.711.42c3.184.753 4.508 2.033 4.508 4.303 0 2.904-2.314 4.723-5.993 4.723-3.442 0-5.766-1.776-5.916-4.584h2.377zm14.545-9.67v2.678h2.152v1.84h-2.152v6.238c0 .97.431 1.421 1.377 1.421.255-.004.511-.022.764-.053v1.828c-.425.08-.857.116-1.29.108-2.291 0-3.185-.86-3.185-3.056v-6.486h-1.645v-1.84h1.645v-2.678h2.334zm3.399 8.337c0-3.56 2.097-5.798 5.367-5.798 3.281 0 5.369 2.237 5.369 5.798 0 3.57-2.077 5.798-5.369 5.798-3.291 0-5.367-2.227-5.367-5.798zm8.369 0c0-2.443-1.12-3.884-3.002-3.884-1.882 0-3.001 1.452-3.001 3.884 0 2.452 1.119 3.883 3.001 3.883s3.002-1.43 3.002-3.883zm4.282-5.659h2.215v1.926h.054a2.698 2.698 0 012.722-2.044c.268-.001.535.028.796.086v2.173a3.246 3.246 0 00-1.044-.14 2.343 2.343 0 00-2.318 1.607 2.34 2.34 0 00-.102.997v6.712h-2.323V25.421zm16.498 7.993c-.313 2.054-2.314 3.464-4.873 3.464-3.293 0-5.336-2.205-5.336-5.744 0-3.55 2.054-5.852 5.238-5.852 3.131 0 5.1 2.15 5.1 5.582v.796h-7.993v.14a2.94 2.94 0 00.799 2.29 2.949 2.949 0 002.245.916 2.56 2.56 0 002.614-1.592h2.206zm-7.853-3.378h5.658a2.717 2.717 0 00-.761-2.042 2.714 2.714 0 00-2.015-.83 2.864 2.864 0 00-2.882 2.872zm-83.492-12.15v-6.42h-2.351V10.41h5.86v1.056H55.88v6.42h-1.162zm8.908-1.524a2.29 2.29 0 01-2.444 1.633 2.562 2.562 0 01-2.607-2.913 2.602 2.602 0 012.602-2.947c1.57 0 2.517 1.072 2.517 2.844v.389h-3.985v.062a1.492 1.492 0 001.503 1.616 1.353 1.353 0 001.342-.684h1.072zm-3.916-1.818h2.85a1.361 1.361 0 00-1.39-1.462 1.442 1.442 0 00-1.46 1.462zm.797-3.244l1.301-1.782h1.306L61.658 11.3h-1.15zm4.733-1.259h1.114v7.845H65.24V10.04zm7.713 6.321a2.29 2.29 0 01-2.445 1.633 2.563 2.563 0 01-2.606-2.913 2.603 2.603 0 012.601-2.947c1.57 0 2.517 1.072 2.517 2.844v.389h-3.984v.062a1.489 1.489 0 001.503 1.616 1.352 1.352 0 001.342-.684h1.072zm-3.917-1.818h2.85a1.361 1.361 0 00-1.39-1.462 1.442 1.442 0 00-1.46 1.462zm.798-3.244l1.3-1.782h1.306L70.984 11.3h-1.15zm8.376 2.788a1.26 1.26 0 00-1.333-.958c-.932 0-1.503.714-1.503 1.916 0 1.223.575 1.954 1.503 1.954a1.226 1.226 0 001.332-.928h1.083a2.208 2.208 0 01-2.409 1.923 2.59 2.59 0 01-2.648-2.949 2.571 2.571 0 012.642-2.911 2.227 2.227 0 012.415 1.953H78.21zm2.56-4.047h1.104v3.11h.088a1.737 1.737 0 011.72-1.011 1.86 1.86 0 011.944 2.103v3.643H84.51v-3.368c0-.902-.42-1.358-1.206-1.358a1.317 1.317 0 00-1.421 1.43v3.296H80.77V10.04zm6.256 6.249c0-1.015.756-1.6 2.098-1.684l1.528-.088v-.487c0-.596-.394-.932-1.155-.932-.621 0-1.052.228-1.176.627h-1.078c.114-.97 1.026-1.591 2.306-1.591 1.414 0 2.211.704 2.211 1.896v3.855h-1.07v-.793h-.09a1.898 1.898 0 01-1.695.886 1.706 1.706 0 01-1.88-1.689zm3.626-.482v-.471l-1.377.088c-.777.052-1.13.316-1.13.813 0 .508.44.804 1.047.804a1.329 1.329 0 001.46-1.234zm2.852-3.564h1.072v.865h.083a1.53 1.53 0 011.524-.959c.166-.002.333.014.496.047v1.099a3.043 3.043 0 00-.621-.068 1.321 1.321 0 00-1.44 1.327v3.33h-1.114v-5.641zm4.2 6.206h1.139c.094.41.565.674 1.316.674.928 0 1.477-.44 1.477-1.186v-1.083h-.083a1.902 1.902 0 01-1.741.947c-1.44 0-2.331-1.113-2.331-2.802 0-1.72.9-2.85 2.342-2.85a1.954 1.954 0 011.772.995h.088v-.902h1.067v5.689c0 1.29-1.011 2.109-2.607 2.109-1.41 0-2.32-.632-2.44-1.59zm3.953-3.456c0-1.124-.581-1.844-1.529-1.844-.959 0-1.497.72-1.497 1.844 0 1.125.538 1.845 1.497 1.845.954 0 1.529-.715 1.529-1.845zm7.638 1.369a2.289 2.289 0 01-2.445 1.632 2.56 2.56 0 01-2.518-1.813 2.554 2.554 0 01-.088-1.1 2.6 2.6 0 012.601-2.947c1.57 0 2.517 1.073 2.517 2.844v.389h-3.984v.062a1.488 1.488 0 001.503 1.616 1.352 1.352 0 001.342-.683h1.072zm-3.917-1.819h2.85a1.36 1.36 0 00-1.389-1.461 1.44 1.44 0 00-1.461 1.461zm5.479-2.3h1.072v.865h.084a1.532 1.532 0 011.523-.959c.167-.002.333.014.497.047v1.099a3.05 3.05 0 00-.622-.068 1.322 1.322 0 00-1.44 1.327v3.33h-1.114v-5.641zm7.188 2.818c0-1.783.916-2.912 2.342-2.912a1.86 1.86 0 011.73.99h.083v-3.1h1.114v7.845h-1.067v-.892h-.088a1.965 1.965 0 01-1.772.985c-1.435 0-2.342-1.13-2.342-2.917zm1.15 0c0 1.197.564 1.917 1.508 1.917.938 0 1.518-.73 1.518-1.912 0-1.176-.586-1.917-1.518-1.917-.938 0-1.508.725-1.508 1.912zm5.624 1.228c0-1.015.756-1.6 2.098-1.684l1.529-.088v-.487c0-.596-.394-.932-1.155-.932-.622 0-1.053.228-1.176.627h-1.078c.113-.97 1.025-1.591 2.305-1.591 1.414 0 2.212.704 2.212 1.896v3.855h-1.072v-.793h-.088a1.903 1.903 0 01-1.694.886 1.706 1.706 0 01-1.881-1.689zm3.627-.482v-.471l-1.378.088c-.777.052-1.13.316-1.13.813 0 .508.441.804 1.047.804a1.331 1.331 0 001.461-1.234zm2.852-3.564h1.072v.896h.083a1.687 1.687 0 011.684-1.005 1.834 1.834 0 011.953 2.098v3.653h-1.114v-3.373c0-.907-.394-1.358-1.217-1.358a1.296 1.296 0 00-1.348 1.43v3.3h-1.113v-5.641zm8.576-.109c1.269 0 2.099.59 2.208 1.585h-1.069c-.102-.414-.507-.678-1.139-.678-.621 0-1.094.295-1.094.735 0 .337.285.55.897.69l.938.217c1.073.249 1.576.71 1.576 1.54 0 1.061-.99 1.77-2.338 1.77-1.342 0-2.217-.605-2.316-1.605h1.115a1.142 1.142 0 001.227.704c.694 0 1.187-.31 1.187-.762 0-.336-.264-.554-.83-.688l-.983-.229c-1.073-.254-1.57-.735-1.57-1.575 0-1 .916-1.704 2.191-1.704z" fill="#fff"/></g><defs><clipPath id="clip0_27697_33782"><path fill="#fff" d="M0 0h168v50H0z"/></clipPath></defs></svg>