<svg width="168" height="50" viewBox="0 0 168 50" fill="none" xmlns="http://www.w3.org/2000/svg"><g clip-path="url(#clip0_27323_33700)"><rect width="168" height="50" rx="6" fill="#A6A6A6"/><rect x="1.044" y="1.011" width="165.901" height="47.978" rx="5" fill="#000"/><path d="M84.793 27.076c-2.939 0-5.306 2.237-5.306 5.307 0 3.043 2.393 5.306 5.306 5.306 2.94 0 5.306-2.237 5.306-5.306.026-3.096-2.367-5.307-5.306-5.307zm0 8.506c-1.612 0-2.99-1.327-2.99-3.2 0-1.898 1.378-3.199 2.99-3.199 1.613 0 2.991 1.3 2.991 3.2 0 1.872-1.378 3.199-2.99 3.199zM73.22 27.076c-2.94 0-5.306 2.237-5.306 5.307 0 3.043 2.393 5.306 5.306 5.306 2.939 0 5.306-2.237 5.306-5.306 0-3.096-2.393-5.307-5.306-5.307zm0 8.506c-1.613 0-2.991-1.327-2.991-3.2 0-1.898 1.378-3.199 2.99-3.199 1.613 0 2.992 1.3 2.992 3.2 0 1.872-1.405 3.199-2.991 3.199zm-13.786-6.893v2.237h5.384c-.156 1.275-.572 2.185-1.222 2.835-.78.78-2.003 1.639-4.162 1.639-3.303 0-5.904-2.653-5.904-5.982 0-3.304 2.575-5.983 5.904-5.983 1.795 0 3.096.702 4.058 1.613l1.587-1.587c-1.353-1.274-3.122-2.263-5.645-2.263-4.526 0-8.349 3.694-8.349 8.22 0 4.525 3.797 8.219 8.35 8.219 2.444 0 4.291-.807 5.722-2.315 1.482-1.483 1.95-3.564 1.95-5.254 0-.52-.052-1.015-.13-1.405h-7.543v.026zm56.39 1.743c-.442-1.197-1.794-3.381-4.525-3.381-2.731 0-4.994 2.132-4.994 5.306 0 2.965 2.237 5.306 5.254 5.306 2.419 0 3.823-1.483 4.421-2.341l-1.794-1.197c-.598.885-1.431 1.457-2.601 1.457-1.171 0-2.029-.546-2.575-1.613l7.075-2.939-.261-.598zm-7.23 1.769c-.052-2.055 1.586-3.096 2.757-3.096.936 0 1.716.468 1.976 1.119l-4.733 1.977zm-5.749 5.15h2.315V21.77h-2.315v15.58zm-3.823-9.104h-.078c-.52-.624-1.535-1.197-2.783-1.197-2.653 0-5.072 2.315-5.072 5.307 0 2.965 2.419 5.28 5.072 5.28 1.274 0 2.263-.572 2.783-1.197h.078v.755c0 2.028-1.093 3.095-2.835 3.095-1.43 0-2.315-1.015-2.68-1.873l-2.028.832c.572 1.405 2.133 3.121 4.682 3.121 2.73 0 5.046-1.612 5.046-5.514v-9.493h-2.211v.884h.026zm-2.653 7.335c-1.613 0-2.94-1.353-2.94-3.2 0-1.872 1.353-3.225 2.94-3.225 1.586 0 2.835 1.353 2.835 3.226 0 1.846-1.249 3.199-2.835 3.199zm30.354-13.812h-5.566v15.555h2.314V31.42h3.252c2.575 0 5.098-1.873 5.098-4.838 0-2.939-2.523-4.812-5.098-4.812zm.052 7.517h-3.304v-5.332h3.304c1.742 0 2.731 1.43 2.731 2.68 0 1.17-.989 2.652-2.731 2.652zm14.357-2.236c-1.69 0-3.433.728-4.135 2.393l2.055.858c.442-.858 1.248-1.145 2.132-1.145 1.197 0 2.419.729 2.445 2.003v.156c-.416-.234-1.326-.598-2.419-.598-2.211 0-4.473 1.222-4.473 3.511 0 2.081 1.82 3.434 3.875 3.434 1.561 0 2.419-.703 2.965-1.509h.078v1.197h2.237v-5.957c-.052-2.809-2.107-4.343-4.76-4.343zm-.286 8.53c-.754 0-1.82-.39-1.82-1.326 0-1.196 1.326-1.664 2.47-1.664 1.015 0 1.509.208 2.133.52-.208 1.43-1.456 2.47-2.783 2.47zm13.161-8.192l-2.653 6.736h-.078l-2.757-6.736h-2.497l4.136 9.415-2.367 5.254h2.419l6.398-14.67h-2.601zm-20.912 9.962h2.315V21.77h-2.315v15.58z" fill="#fff"/><path d="M25.776 24.163l-13.24 14.072a3.574 3.574 0 003.46 2.653c.65 0 1.275-.182 1.82-.494l.053-.026 14.904-8.61-6.997-7.595z" fill="#E43629"/><path d="M39.197 21.77l-6.45-3.745-7.257 6.477 7.283 7.283 6.398-3.694a3.571 3.571 0 001.873-3.147 3.59 3.59 0 00-1.847-3.173z" fill="#F9BD00"/><path d="M12.537 11.549c-.078.286-.13.598-.13.91v24.866c0 .312.052.624.13.91l13.707-13.707-13.707-12.98z" fill="#587DBE"/><path d="M25.88 24.892l6.867-6.867L17.843 9.39c-.546-.313-1.17-.52-1.847-.52a3.574 3.574 0 00-3.46 2.652l13.344 13.37z" fill="#30A043"/><path d="M51.994 8.583h2.471c.807 0 1.509.156 2.107.494.598.313 1.066.78 1.379 1.379.312.598.494 1.248.494 2.029 0 .754-.156 1.43-.494 2.029-.313.598-.78 1.04-1.379 1.378a4.5 4.5 0 01-2.107.494h-2.47V8.583zm2.471 6.633c.885 0 1.56-.234 2.055-.728.494-.495.728-1.17.728-2.03 0-.858-.234-1.534-.728-2.028s-1.17-.728-2.055-.728h-1.248v5.488h1.248v.026zm5.515-6.633h1.196v7.751h-1.197v-7.75zm3.693 7.361c-.52-.364-.858-.91-1.067-1.586l1.119-.443c.104.443.312.78.624 1.067.286.286.65.416 1.066.416.39 0 .729-.104.989-.312.26-.208.416-.468.416-.832 0-.313-.13-.599-.364-.807-.234-.208-.65-.416-1.222-.624l-.495-.182a3.73 3.73 0 01-1.326-.78c-.338-.338-.52-.78-.52-1.327 0-.39.104-.728.312-1.066.208-.312.494-.572.858-.78.364-.183.78-.287 1.275-.287.676 0 1.196.156 1.612.495.416.338.676.702.832 1.118l-1.066.442a1.465 1.465 0 00-.442-.676c-.234-.182-.52-.286-.91-.286-.365 0-.65.104-.91.286-.235.182-.365.416-.365.702 0 .26.104.494.338.676.208.183.572.339 1.015.495l.494.182c.676.234 1.17.52 1.534.91.365.364.547.858.547 1.483 0 .494-.13.936-.39 1.274-.26.338-.573.598-.989.754-.39.157-.806.26-1.223.26-.65 0-1.222-.181-1.742-.572zm5.878-7.361h2.653c.468 0 .885.104 1.275.312.39.208.702.495.91.833.234.364.338.78.338 1.222 0 .442-.104.859-.338 1.223-.234.364-.546.65-.91.832-.39.208-.807.312-1.275.312h-1.456v3.017H69.55v-7.75zm2.705 3.616c.39 0 .729-.13.963-.364.234-.26.364-.547.364-.885 0-.338-.13-.624-.364-.884-.234-.26-.573-.364-.963-.364h-1.508v2.497h1.508zm5.488 3.771a4.113 4.113 0 01-1.456-1.456 4.204 4.204 0 01-.52-2.03c0-.753.182-1.43.52-2.028A3.572 3.572 0 0177.744 9a3.982 3.982 0 012.055-.547c.754 0 1.43.182 2.029.547a4.04 4.04 0 011.43 1.456c.339.624.52 1.3.52 2.029 0 .754-.181 1.43-.52 2.029a3.67 3.67 0 01-1.43 1.456c-.598.364-1.3.546-2.029.546-.78 0-1.456-.181-2.055-.546zm3.46-.962a2.6 2.6 0 001.014-1.04c.26-.443.364-.937.364-1.51 0-.571-.13-1.066-.364-1.508a2.992 2.992 0 00-1.014-1.04c-.442-.26-.91-.364-1.43-.364-.521 0-.99.13-1.431.364a2.6 2.6 0 00-1.015 1.04c-.26.443-.364.937-.364 1.509 0 .572.13 1.066.364 1.508.26.443.599.78 1.015 1.04.442.261.91.365 1.43.365a2.454 2.454 0 001.43-.364zm4.109-6.425h1.405l3.511 5.697h.052l-.052-1.483V8.583h1.17v7.751h-1.222l-3.693-5.982h-.052l.052 1.482v4.5h-1.17v-7.75zm8.063 0h1.197v7.751h-1.197v-7.75zm3.148 0h2.913c.416 0 .806.078 1.144.26.364.182.625.417.833.755.208.312.312.65.312 1.04s-.104.728-.286 1.014a1.824 1.824 0 01-.755.65v.053a1.863 1.863 0 011.327 1.794c0 .417-.104.807-.338 1.145-.208.338-.52.572-.885.78-.364.182-.78.286-1.222.286h-3.043V8.583zm2.835 3.277c.364 0 .65-.103.858-.338.208-.208.312-.468.312-.754s-.104-.546-.312-.754c-.208-.208-.494-.312-.832-.312h-1.69v2.159h1.664zm.182 3.382c.364 0 .676-.104.91-.338.234-.234.338-.495.338-.807 0-.312-.13-.598-.364-.832-.234-.234-.546-.338-.936-.338h-1.795v2.34h1.847v-.025zm4.006-6.659h1.196v6.633h3.329v1.118h-4.525v-7.75zm5.8 0h4.708v1.119h-3.512v2.184h3.174v1.119h-3.174v2.185h3.512v1.118h-4.708V8.583zm9.233 7.361c-.52-.364-.858-.91-1.066-1.586l1.118-.443c.105.443.313.78.625 1.067.286.286.65.416 1.066.416.39 0 .728-.104.989-.312.26-.208.416-.468.416-.832 0-.313-.13-.599-.364-.807-.235-.208-.651-.416-1.223-.624l-.494-.182a3.734 3.734 0 01-1.327-.78c-.338-.338-.52-.78-.52-1.327 0-.39.104-.728.312-1.066a2.49 2.49 0 01.859-.78c.364-.183.78-.287 1.274-.287.676 0 1.197.156 1.613.495.416.338.676.702.832 1.118l-1.066.442a1.459 1.459 0 00-.443-.676c-.234-.182-.52-.286-.91-.286-.364 0-.65.104-.91.286-.234.182-.364.416-.364.702 0 .26.104.494.338.676.208.183.572.339 1.014.495l.494.182c.677.234 1.171.52 1.535.91.364.364.546.858.546 1.483 0 .494-.13.936-.39 1.274-.26.338-.572.598-.988.754a3.33 3.33 0 01-1.223.26c-.65 0-1.222-.181-1.743-.572zm7.101.182a2.806 2.806 0 01-1.04-1.092c-.234-.468-.364-1.04-.364-1.665V8.583h1.17v4.838c0 .572.156 1.067.442 1.43.312.365.729.547 1.301.547s.988-.182 1.3-.546c.312-.364.443-.833.443-1.43v-4.84h1.17v4.786c0 .624-.13 1.17-.364 1.639a2.636 2.636 0 01-1.015 1.118c-.442.26-.962.39-1.56.39a2.94 2.94 0 01-1.483-.39zm6.321-7.543h2.731a2.561 2.561 0 012.185 1.145c.208.364.338.78.338 1.222 0 .52-.156.989-.494 1.379-.339.39-.755.676-1.275.806v.052l2.133 3.07v.051h-1.379l-2.08-3.043h-.937v3.043h-1.196V8.583h-.026zm2.679 3.616c.364 0 .702-.13.936-.364.26-.235.39-.547.39-.91 0-.339-.13-.625-.364-.885-.234-.26-.546-.364-.936-.364h-1.535v2.497h1.509v.026z" fill="#fff"/></g><defs><clipPath id="clip0_27323_33700"><path fill="#fff" d="M0 0h168v50H0z"/></clipPath></defs></svg>